<svg width="262" height="62" xmlns="http://www.w3.org/2000/svg" xmlns:undefined="https://boxy-svg.com">
 <g transform="matrix(1, 0, 0, 1, 0.819074, 0.940454)">
  <title>background</title>
  <rect fill="#fff" id="canvas_background" height="62" width="262" y="-1" x="-1"/>
  <g display="none" id="canvasGrid">
   <rect fill="url(#gridpattern)" stroke-width="0" y="1" x="1" height="125" width="625" id="svg_1"/>
  </g>
 </g>

 <g transform="matrix(1, 0, 0, 1, 0.819074, 0.940454)">
  <title>Layer 1</title>
  <line fill="none" stroke="#000" stroke-width="1.5" x1="4.44587" y1="4.79511" x2="55.0131" y2="4.79511" id="svg_4"/>
  <line fill="none" stroke="#000" stroke-width="1.5" x1="5.0173" y1="4.79511" x2="5.0173" y2="54.70306" id="svg_5"/>
  <line fill="none" stroke="#000" stroke-width="1.5" x1="55.0131" y1="4.79511" x2="55.0131" y2="54.70306" id="svg_9"/>
  <line fill="none" stroke="#000" stroke-width="1.5" x1="55.0131" y1="4.71109" x2="105.0131" y2="4.71109" id="svg_15"/>
  <line fill="none" stroke="#000" stroke-width="1.5" x1="105.0131" y1="4.71109" x2="105.0131" y2="54.70306" id="svg_17"/>
  <line fill="none" stroke="#000" stroke-width="1.5" x1="202.67407" y1="4.71109" x2="254.90234" y2="4.71109" id="svg_19"/>
  <line fill="none" stroke="#000" stroke-width="1.5" x1="203.99861" y1="4.42123" x2="203.99861" y2="54.4132" id="svg_20"/>
  <line fill="none" stroke="#000" stroke-width="1.5" x1="253.9986" y1="4.42123" x2="253.9986" y2="54.4132" id="svg_32"/>
  <line fill="none" stroke="#000" stroke-width="1.5" x1="154.00336" y1="4.71109" x2="204.62788" y2="4.71109" id="svg_34"/>
  <line fill="none" stroke="#000" stroke-width="1.5" x1="104.68448" y1="4.71602" x2="155.13974" y2="4.71602" id="svg_40"/>
  <line fill="none" stroke="#000" stroke-width="1.5" x1="4.59685" y1="55.01343" x2="55.44979" y2="55.01343" id="svg_2"/>
  <line transform="rotate(-0.192951, 154.688, 55.0181)" fill="none" stroke="#000" stroke-width="1.5" x1="105.12062" y1="55.01805" x2="204.25508" y2="55.01805" id="svg_12"/>
  <text fill="#000000" stroke="#000" stroke-width="0" x="13.13551" y="35.1934" id="svg_10" font-size="10" font-family="Helvetica, Arial, sans-serif" text-anchor="start">Always</text>
  <text fill="#000000" stroke="#000" stroke-width="0" x="70.61563" y="35.21538" id="svg_13" font-size="10" font-family="Helvetica, Arial, sans-serif" text-anchor="start">&lt;P&gt;</text>
  <text fill="#000000" stroke="#000" stroke-width="0" x="113.36246" y="35.46957" id="svg_14" font-size="9" font-family="Helvetica, Arial, sans-serif" text-anchor="start">within time interval of</text>
  <text fill="#000000" stroke="#000" stroke-width="0" x="214.47199" y="45.09273" id="svg_16" font-size="10" font-family="Helvetica, Arial, sans-serif" text-anchor="start" stroke-dasharray="2,2">&lt;high&gt;</text>
 </g>
 <g>
  <title>Layer 2</title>
  <text stroke-dasharray="2,2" text-anchor="start" font-family="Helvetica, Arial, sans-serif" font-size=" 10px" id="text-1" y="31.204" x="210.891" stroke-width="0" stroke="#000" fill="#000000">time unit</text>
  <path id="svg_3" stroke=" rgb(0, 0, 0)" fill=" rgb(0, 0, 0)" d="m254.016,30.99c0.151,-27.802 -43.115,-36.227 -48.133,0.186l2.772,-0.158c3.564,-32.063 42.323,-25.953 42.737,0.142"/>
  <path id="svg_6" fill=" rgb(0, 0, 0)"  d="m250.6428,20.38431l-11.52077,-3.46047l8.75656,-8.2474l2.76421,11.70787z"/>
 </g>
</svg>