<svg width="287" height="62" xmlns="http://www.w3.org/2000/svg" xmlns:undefined="https://boxy-svg.com">
 <g transform="matrix(1.107786, 0, 0, 1.325634, -3.81427, -6.746732)">
  <title>background</title>
  <rect x="-1" y="-1" width="327" height="62" id="rect-3" fill="#fff"/>
  <g id="g-2" display="none">
   <rect id="rect-4" width="625" height="125" x="1" y="1" stroke-width="0" fill="url(#gridpattern)"/>
  </g>
 </g>

 <g transform="matrix(1.107786, 0, 0, 1.325634, -4.232987, -6.777356)">
  <title>background</title>
  <rect x="-1" y="-1" width="327" height="62" id="rect-1" fill="#fff"/>
  <g id="g-1" display="none">
   <rect id="rect-2" width="625" height="125" x="1" y="1" stroke-width="0" fill="url(#gridpattern)"/>
  </g>
 </g>
 <g transform="matrix(1, 0, 0, 1, 9.689079, 0.083029)">
  <title>Layer 1</title>
  <line id="line-1" y2="4.46584" x2="55.01083" y1="5.15828" x1="-4.21716" stroke-width="1.5" stroke="#000" fill="none"/>
  <line id="line-2" y2="54.703" x2="-4.14" y1="4.795" x1="-4.14" stroke-width="1.5" stroke="#000" fill="none"/>
  <line id="line-3" y2="54.70306" x2="55.0131" y1="4.79511" x1="55.0131" stroke-width="1.5" stroke="#000" fill="none"/>
  <line id="line-4" y2="4.71109" x2="105.0131" y1="4.71109" x1="55.0131" stroke-width="1.5" stroke="#000" fill="none"/>
  <line id="line-5" y2="54.70306" x2="105.0131" y1="4.71109" x1="105.0131" stroke-width="1.5" stroke="#000" fill="none"/>
  <line id="line-6" y2="4.711" x2="272.008" y1="4.71109" x1="202.67407" stroke-width="1.5" stroke="#000" fill="none"/>
  <line id="line-7" y2="55.779" x2="220.424" y1="4.421" x1="220.424" stroke-width="1.5" stroke="#000" fill="none"/>
  <line id="line-8" y2="53.901" x2="272.651" y1="3.909" x1="272.651" stroke-width="1.5" stroke="#000" fill="none"/>
  <line id="line-9" y2="4.71109" x2="204.62788" y1="4.71109" x1="154.00336" stroke-width="1.5" stroke="#000" fill="none"/>
  <line id="line-13" y2="4.71602" x2="155.13974" y1="4.71602" x1="104.68448" stroke-width="1.5" stroke="#000" fill="none"/>
  <line id="svg_2" y2="55.01343" x2="55.44979" y1="55.013" x1="-4.614" stroke-width="1.5" stroke="#000" fill="none"/>
  <line id="line-15" y2="55.407" x2="220.681" y1="55.016" x1="104.438" stroke-width="1.5" stroke="#000" fill="none" transform="rotate(-0.192951, 154.688, 55.0181)"/>
  <text text-anchor="start" font-family="Helvetica, Arial, sans-serif" font-size=" 10px" id="text-3" y="34.166" x="2.363" stroke-width="0" stroke="#000" fill="#000000">Escape by</text>
  <text text-anchor="start" font-family="Helvetica, Arial, sans-serif" font-size="10" id="text-4" y="35.21538" x="70.61563" stroke-width="0" stroke="#000" fill="#000000">&lt;P&gt;</text>
  <text text-anchor="start" font-family="Helvetica, Arial, sans-serif" font-size=" 9px" id="text-5" y="32.59" x="112.172" stroke-width="0" stroke="#000" fill="#000000">with a distance of at least</text>
  <text stroke-dasharray="2,2" text-anchor="start" font-family="Helvetica, Arial, sans-serif" font-size=" 10px" id="text-6" y="47.315" x="234.832" stroke-width="0" stroke="#000" fill="#000000">&lt;low&gt;</text>
 </g>
 <g>
  <title>Layer 2</title>
  <text stroke-dasharray="2,2" text-anchor="start" font-family="Helvetica, Arial, sans-serif" font-size=" 10px" id="text-9" y="30.938" x="237.369" stroke-width="0" stroke="#000" fill="#000000">distance</text>
  <path id="svg_1" fill=" rgb(0, 0, 0)"   d="m247.83813,13.0488l-10.50365,5.86313l0.17348,-12.02775l10.33017,6.16462z"/>
  <rect id="svg_3" fill=" rgb(0, 0, 0)" height="3.452" width="43.343" y="11.57" x="233.13"/>
 </g>
</svg>