<svg width="287" height="62" xmlns="http://www.w3.org/2000/svg">
 <g transform="matrix(1.107786, 0, 0, 1.325634, -3.81427, -6.746732)">
  <title>background</title>
  <rect fill="#fff" id="rect-3" height="62" width="327" y="-1" x="-1"/>
  <g display="none" id="g-2">
   <rect fill="url(#gridpattern)" stroke-width="0" y="1" x="1" height="125" width="625" id="rect-4"/>
  </g>
 </g>

 <g transform="matrix(1.107786, 0, 0, 1.325634, -4.232987, -6.777356)">
  <title>background</title>
  <rect fill="#fff" id="rect-1" height="62" width="327" y="-1" x="-1"/>
  <g display="none" id="g-1">
   <rect fill="url(#gridpattern)" stroke-width="0" y="1" x="1" height="125" width="625" id="rect-2"/>
  </g>
 </g>
 <g transform="matrix(1, 0, 0, 1, 9.689079, 0.083029)">
  <title>Layer 1</title>
  <line fill="none" stroke="#000" stroke-width="1.5" x1="-4.21716" y1="5.15828" x2="55.01083" y2="4.46584" id="line-1"/>
  <line fill="none" stroke="#000" stroke-width="1.5" x1="-4.14" y1="4.795" x2="-4.14" y2="54.703" id="line-2"/>
  <line fill="none" stroke="#000" stroke-width="1.5" x1="55.0131" y1="4.79511" x2="55.0131" y2="54.70306" id="line-3"/>
  <line fill="none" stroke="#000" stroke-width="1.5" x1="55.0131" y1="4.71109" x2="105.0131" y2="4.71109" id="line-4"/>
  <line fill="none" stroke="#000" stroke-width="1.5" x1="105.0131" y1="4.71109" x2="105.0131" y2="54.70306" id="line-5"/>
  <line fill="none" stroke="#000" stroke-width="1.5" x1="202.67407" y1="4.71109" x2="272.008" y2="4.711" id="line-6"/>
  <line fill="none" stroke="#000" stroke-width="1.5" x1="220.424" y1="4.421" x2="220.424" y2="55.779" id="line-7"/>
  <line fill="none" stroke="#000" stroke-width="1.5" x1="272.651" y1="3.909" x2="272.651" y2="53.901" id="line-8"/>
  <line fill="none" stroke="#000" stroke-width="1.5" x1="154.00336" y1="4.71109" x2="204.62788" y2="4.71109" id="line-9"/>
  <line fill="none" stroke="#000" stroke-width="1.5" x1="104.68448" y1="4.71602" x2="155.13974" y2="4.71602" id="line-13"/>
  <line fill="none" stroke="#000" stroke-width="1.5" x1="-4.614" y1="55.013" x2="55.44979" y2="55.01343" id="svg_2"/>
  <line transform="rotate(-0.192951, 154.688, 55.0181)" fill="none" stroke="#000" stroke-width="1.5" x1="104.438" y1="55.016" x2="220.681" y2="55.407" id="line-15"/>
  <text fill="#000000" stroke="#000" stroke-width="0" x="2.363" y="34.166" id="text-3" font-size=" 10px" font-family="Helvetica, Arial, sans-serif" text-anchor="start">Escape by</text>
  <text fill="#000000" stroke="#000" stroke-width="0" x="70.61563" y="35.21538" id="text-4" font-size="10" font-family="Helvetica, Arial, sans-serif" text-anchor="start">&lt;P&gt;</text>
  <text fill="#000000" stroke="#000" stroke-width="0" x="112.172" y="32.59" id="text-5" font-size=" 9px" font-family="Helvetica, Arial, sans-serif" text-anchor="start">with a distance of at least</text>
  <text fill="#000000" stroke="#000" stroke-width="0" x="233.023" y="47.315" id="text-6" font-size=" 10px" font-family="Helvetica, Arial, sans-serif" text-anchor="start" stroke-dasharray="2,2">&lt;dist&gt;</text>
 </g>
 <g>
  <title>Layer 2</title>
  <text fill="#000000" stroke="#000" stroke-width="0" x="237.369" y="30.938" id="text-9" font-size=" 10px" font-family="Helvetica, Arial, sans-serif" text-anchor="start" stroke-dasharray="2,2">distance</text>
  <path d="m247.83813,13.0488l-10.50365,5.86313l0.17348,-12.02775l10.33017,6.16462z" fill=" rgb(0, 0, 0)" id="svg_1"/>
  <rect x="233.13" y="11.57" width="43.343" height="3.452" fill=" rgb(0, 0, 0)" id="svg_3"/>
 </g>
</svg>