<svg width="333" height="62" xmlns="http://www.w3.org/2000/svg" xmlns:undefined="https://boxy-svg.com">
 <g transform="matrix(1.315001, 0, 0, 1.058915, 0.707304, 0.477403)">
  <title>background</title>
  <rect fill="#fff" id="rect-1" height="62" width="262" y="-1" x="-1"/>
  <g display="none" id="g-1">
   <rect fill="url(#gridpattern)" stroke-width="0" y="1" x="1" height="125" width="625" id="rect-2"/>
  </g>
 </g>

 <g transform="matrix(1, 0, 0, 1, 7.022394, 1.25253)">
  <title>background</title>
  <rect x="-1" y="-1" width="335" height="64" id="canvas_background" fill="#fff"/>
  <g id="canvasGrid" display="none">
   <rect id="svg_1" width="625" height="125" x="1" y="1" stroke-width="0" fill="url(#gridpattern)"/>
  </g>
 </g>
 <g transform="matrix(1, 0, 0, 1, 7.022394, 1.25253)">
  <title>Layer 1</title>
  <line id="svg_4" y2="4.79511" x2="55.0131" y1="4.79511" x1="4.44587" stroke-width="1.5" stroke="#000" fill="none"/>
  <line id="svg_5" y2="54.70306" x2="5.0173" y1="4.79511" x1="5.0173" stroke-width="1.5" stroke="#000" fill="none"/>
  <line id="svg_9" y2="54.70306" x2="55.0131" y1="4.79511" x1="55.0131" stroke-width="1.5" stroke="#000" fill="none"/>
  <line id="svg_15" y2="4.71109" x2="105.0131" y1="4.71109" x1="55.0131" stroke-width="1.5" stroke="#000" fill="none"/>
  <line id="svg_17" y2="54.70306" x2="105.0131" y1="4.71109" x1="105.0131" stroke-width="1.5" stroke="#000" fill="none"/>
  <line id="svg_19" y2="4.71109" x2="269.48567" y1="4.71109" x1="202.67407" stroke-width="1.5" stroke="#000" fill="none"/>
  <line id="svg_20" y2="54.4132" x2="203.99861" y1="4.42123" x1="203.99861" stroke-width="1.5" stroke="#000" fill="none"/>
  <line id="svg_32" y2="54.4132" x2="253.9986" y1="4.42123" x1="253.9986" stroke-width="1.5" stroke="#000" fill="none"/>
  <line id="svg_34" y2="4.71109" x2="204.62788" y1="4.71109" x1="154.00336" stroke-width="1.5" stroke="#000" fill="none"/>
  <line id="svg_35" y2="54.69063" x2="272.40026" y1="4.69866" x1="272.40026" stroke-width="1.5" stroke="#000" fill="none"/>
  <line id="svg_37" y2="4.71109" x2="320.56127" y1="4.71109" x1="268.56127" stroke-width="1.5" stroke="#000" fill="none"/>
  <line id="svg_38" y2="54.70306" x2="319.79571" y1="4.71109" x1="319.79571" stroke-width="1.5" stroke="#000" fill="none"/>
  <line id="svg_40" y2="4.71602" x2="155.13974" y1="4.71602" x1="104.68448" stroke-width="1.5" stroke="#000" fill="none"/>
  <line id="svg_2" y2="55.01343" x2="55.44979" y1="55.01343" x1="4.59685" stroke-width="1.5" stroke="#000" fill="none"/>
  <line id="svg_6" y2="54.63955" x2="272.8209" y1="54.63955" x1="253.25568" stroke-width="1.5" stroke="#000" fill="none"/>
  <line id="svg_12" y2="55.01805" x2="204.25508" y1="55.01805" x1="105.12062" stroke-width="1.5" stroke="#000" fill="none" transform="rotate(-0.192951, 154.688, 55.0181)"/>
  <text text-anchor="start" font-family="Helvetica, Arial, sans-serif" font-size="10" id="svg_10" y="35.1934" x="6.5718" stroke-width="0" stroke="#000" fill="#000000">Eventually</text>
  <text text-anchor="start" font-family="Helvetica, Arial, sans-serif" font-size="10" id="svg_13" y="35.21538" x="70.61563" stroke-width="0" stroke="#000" fill="#000000">&lt;P&gt;</text>
  <text text-anchor="start" font-family="Helvetica, Arial, sans-serif" font-size="9" id="svg_14" y="35.46957" x="113.36246" stroke-width="0" stroke="#000" fill="#000000">within time interval of</text>
  <text stroke-dasharray="2,2" text-anchor="start" font-family="Helvetica, Arial, sans-serif" font-size="10" id="svg_16" y="45.09273" x="215.30532" stroke-width="0" stroke="#000" fill="#000000">&lt;low&gt;</text>
  <text text-anchor="start" font-family="Helvetica, Arial, sans-serif" font-size="20" id="svg_21" y="43.29565" x="260.5328" stroke-width="0" stroke="#000" fill="#000000">,</text>
  <text stroke-dasharray="2,2" text-anchor="start" font-family="Helvetica, Arial, sans-serif" font-size="10" id="svg_7" y="45.94987" x="281.3053" stroke-width="0" stroke="#000" fill="#000000">&lt;high&gt;</text>
 </g>
 <g>
  <title>Layer 2</title>
  <text stroke-dasharray="2,2" text-anchor="start" font-family="Helvetica, Arial, sans-serif" font-size=" 10px" id="text-1" y="33.038" x="284.251" stroke-width="0" stroke="#000" fill="#000000">time unit</text>
  <path id="svg_3" stroke=" rgb(0, 0, 0)" fill=" rgb(0, 0, 0)" d="m327.376,30.992c0.151,-27.802 -43.115,-36.227 -48.133,0.186l2.772,-0.158c3.564,-32.063 42.323,-25.953 42.737,0.142"/>
  <path id="svg_8" fill=" rgb(0, 0, 0)"  d="m323.54505,19.2418l-11.52077,-3.46047l8.75656,-8.2474l2.76421,11.70787z"/>
  <text stroke-dasharray="2,2" text-anchor="start" font-family="Helvetica, Arial, sans-serif" font-size=" 10px" id="text-2" y="33.477" x="216.907" stroke-width="0" stroke="#000" fill="#000000">time unit</text>
  <path id="svg_11" stroke=" rgb(0, 0, 0)" fill=" rgb(0, 0, 0)" d="m260.032,30.744c0.151,-27.802 -43.115,-36.227 -48.133,0.186l2.772,-0.158c3.564,-32.063 42.323,-25.953 42.737,0.142"/>
  <path id="svg_18" fill=" rgb(0, 0, 0)"   d="m223.70719,10.39095l-1.37943,11.9499l-9.65943,-7.16884l11.03886,-4.78106z"/>
 </g>
</svg>