<svg width="262" height="62" xmlns="http://www.w3.org/2000/svg" xmlns:undefined="https://boxy-svg.com">
 <g transform="matrix(1, 0, 0, 1.058915, 0.392303, 0.477403)">
  <title>background</title>
  <rect fill="#fff" id="rect-1" height="62" width="262" y="-1" x="-1"/>
  <g display="none" id="g-1">
   <rect fill="url(#gridpattern)" stroke-width="0" y="1" x="1" height="125" width="625" id="rect-2"/>
  </g>
 </g>

 <g transform="matrix(1, 0, 0, 1, 3.314471, -58.756065)">
  <title>Layer 1</title>
  <line fill="none" stroke="#000" stroke-width="1.5" x1="2.254" y1="65.431" x2="52.822" y2="65.431" id="line-1"/>
  <line fill="none" stroke="#000" stroke-width="1.5" x1="2.826" y1="65.431" x2="2.826" y2="115.339" id="line-2"/>
  <line fill="none" stroke="#000" stroke-width="1.5" x1="52.822" y1="65.431" x2="52.822" y2="115.339" id="line-3"/>
  <line fill="none" stroke="#000" stroke-width="1.5" x1="52.822" y1="65.347" x2="102.822" y2="65.347" id="line-4"/>
  <line fill="none" stroke="#000" stroke-width="1.5" x1="102.822" y1="65.347" x2="102.822" y2="115.339" id="line-5"/>
  <line fill="none" stroke="#000" stroke-width="1.5" x1="200.483" y1="65.347" x2="252.622" y2="65.347" id="line-6"/>
  <line fill="none" stroke="#000" stroke-width="1.5" x1="201.807" y1="65.057" x2="201.807" y2="115.049" id="line-7"/>
  <line fill="none" stroke="#000" stroke-width="1.5" x1="251.807" y1="65.057" x2="251.807" y2="115.049" id="line-8"/>
  <line fill="none" stroke="#000" stroke-width="1.5" x1="151.812" y1="65.347" x2="202.436" y2="65.347" id="line-9"/>
  <line fill="none" stroke="#000" stroke-width="1.5" x1="102.493" y1="65.352" x2="152.948" y2="65.352" id="line-10"/>
  <line fill="none" stroke="#000" stroke-width="1.5" x1="2.405" y1="115.649" x2="53.258" y2="115.649" id="line-11"/>
  <line fill="none" stroke="#000" stroke-width="1.5" x1="102.92925" y1="115.8209" x2="202.06265" y2="115.48702" id="line-12"/>
  <text fill="#000000" stroke="#000" stroke-width="0" x="4.38" y="95.829" id="text-2" font-size=" 10px" font-family="Helvetica, Arial, sans-serif" text-anchor="start">Eventually</text>
  <text fill="#000000" stroke="#000" stroke-width="0" x="68.424" y="95.851" id="text-3" font-size=" 10px" font-family="Helvetica, Arial, sans-serif" text-anchor="start">&lt;P&gt;</text>
  <text fill="#000000" stroke="#000" stroke-width="0" x="111.171" y="96.105" id="text-4" font-size=" 9px" font-family="Helvetica, Arial, sans-serif" text-anchor="start">within time interval of</text>
  <text fill="#000000" stroke="#000" stroke-width="0" x="211.955" y="105.728" id="text-5" font-size=" 10px" font-family="Helvetica, Arial, sans-serif" text-anchor="start" stroke-dasharray="2,2">&lt;high&gt;</text>
 </g>
 <g>
  <title>Layer 2</title>
  <text stroke-dasharray="2,2" text-anchor="start" font-family="Helvetica, Arial, sans-serif" font-size=" 10px" id="text-1" y="31.204" x="210.891" stroke-width="0" stroke="#000" fill="#000000">time unit</text>
  <path id="svg_1" stroke=" rgb(0, 0, 0)" fill=" rgb(0, 0, 0)" d="m254.016,30.99c0.151,-27.802 -43.115,-36.227 -48.133,0.186l2.772,-0.158c3.564,-32.063 42.323,-25.953 42.737,0.142"/>
  <path id="svg_2" fill=" rgb(0, 0, 0)"  d="m250.6428,20.38431l-11.52077,-3.46047l8.75656,-8.2474l2.76421,11.70787z"/>
 </g>
</svg>