<svg width="272" height="62" xmlns="http://www.w3.org/2000/svg" xmlns:undefined="https://boxy-svg.com">
 <g transform="matrix(1.107786, 0, 0, 1.325634, -3.81427, -6.746732)">
  <title>background</title>
  <rect x="-1" y="-1" width="327" height="62" id="rect-3" fill="#fff"/>
  <g id="g-2" display="none">
   <rect id="rect-4" width="625" height="125" x="1" y="1" stroke-width="0" fill="url(#gridpattern)"/>
  </g>
 </g>

 <g transform="matrix(1.107786, 0, 0, 1.325634, -4.232987, -6.777356)">
  <title>background</title>
  <rect x="-1" y="-1" width="327" height="62" id="rect-1" fill="#fff"/>
  <g id="g-1" display="none">
   <rect id="rect-2" width="625" height="125" x="1" y="1" stroke-width="0" fill="url(#gridpattern)"/>
  </g>
 </g>
 <g transform="matrix(1, 0, 0, 1, 9.689079, 0.083029)">
  <title>Layer 1</title>
  <line id="line-1" y2="4.46584" x2="55.01083" y1="5.15828" x1="-4.21716" stroke-width="1.5" stroke="#000" fill="none"/>
  <line id="line-2" y2="54.703" x2="-4.14" y1="4.795" x1="-4.14" stroke-width="1.5" stroke="#000" fill="none"/>
  <line id="line-3" y2="54.70306" x2="55.0131" y1="4.79511" x1="55.0131" stroke-width="1.5" stroke="#000" fill="none"/>
  <line id="line-4" y2="4.71109" x2="105.0131" y1="4.71109" x1="55.0131" stroke-width="1.5" stroke="#000" fill="none"/>
  <line id="line-5" y2="54.70306" x2="105.0131" y1="4.71109" x1="105.0131" stroke-width="1.5" stroke="#000" fill="none"/>
  <line id="line-6" y2="4.88" x2="254.214" y1="4.71109" x1="202.67407" stroke-width="1.5" stroke="#000" fill="none"/>
  <line id="line-7" y2="54.4132" x2="203.99861" y1="4.42123" x1="203.99861" stroke-width="1.5" stroke="#000" fill="none"/>
  <line id="line-8" y2="54.4132" x2="253.9986" y1="4.42123" x1="253.9986" stroke-width="1.5" stroke="#000" fill="none"/>
  <line id="line-9" y2="4.71109" x2="204.62788" y1="4.71109" x1="154.00336" stroke-width="1.5" stroke="#000" fill="none"/>
  <line id="line-13" y2="4.71602" x2="155.13974" y1="4.71602" x1="104.68448" stroke-width="1.5" stroke="#000" fill="none"/>
  <line id="svg_2" y2="55.01343" x2="55.44979" y1="55.013" x1="-4.614" stroke-width="1.5" stroke="#000" fill="none"/>
  <line id="line-15" y2="55.01805" x2="204.25508" y1="55.01805" x1="105.12062" stroke-width="1.5" stroke="#000" fill="none" transform="rotate(-0.192951, 154.688, 55.0181)"/>
  <text text-anchor="start" font-family="Helvetica, Arial, sans-serif" font-size=" 10px" id="text-3" y="35.193" x="-1.059" stroke-width="0" stroke="#000" fill="#000000">Everywhere</text>
  <text text-anchor="start" font-family="Helvetica, Arial, sans-serif" font-size="10" id="text-4" y="35.21538" x="70.61563" stroke-width="0" stroke="#000" fill="#000000">&lt;P&gt;</text>
  <text text-anchor="start" font-family="Helvetica, Arial, sans-serif" font-size=" 9px" id="text-5" y="33.935" x="116.431" stroke-width="0" stroke="#000" fill="#000000">within a distance of</text>
  <text stroke-dasharray="2,2" text-anchor="start" font-family="Helvetica, Arial, sans-serif" font-size=" 10px" id="text-6" y="45.093" x="214.032" stroke-width="0" stroke="#000" fill="#000000">&lt;high&gt;</text>
 </g>
 <g>
  <title>Layer 2</title>
  <text stroke-dasharray="2,2" text-anchor="start" font-family="Helvetica, Arial, sans-serif" font-size=" 10px" id="text-9" y="32.307" x="219.574" stroke-width="0" stroke="#000" fill="#000000">distance</text>
  <path id="svg_1" fill=" rgb(0, 0, 0)"   d="m262.64559,14.77193l-10.50365,5.86313l0.17348,-12.02775l10.33017,6.16462z"/>
  <rect id="svg_3" fill=" rgb(0, 0, 0)" height="3.452" width="43.343" y="12.939" x="215.335"/>
 </g>
</svg>