<svg width="362" height="62" xmlns="http://www.w3.org/2000/svg">
 <g transform="matrix(1.114089, 0, 0, 1.020058, -0.300436, 0.020058)">
  <title>background</title>
  <rect x="-1" y="-1" width="327" height="62" id="rect-3" fill="#fff"/>
 </g>

 <g transform="matrix(1, 0, 0, 1, 9.948617, 0)">
  <title>Layer 1</title>
  <g id="svg_1" transform="matrix(1, 0, 0, 1, -9.69163, -0.986629)">
   <title>Layer 1</title>
   <line id="svg_4" y2="4.79511" x2="55.0131" y1="4.79511" x1="4.44587" stroke-width="1.5" stroke="#000" fill="none"/>
   <line id="svg_5" y2="54.70306" x2="5.0173" y1="4.79511" x1="5.0173" stroke-width="1.5" stroke="#000" fill="none"/>
   <line id="svg_9" y2="54.70306" x2="55.0131" y1="4.79511" x1="55.0131" stroke-width="1.5" stroke="#000" fill="none"/>
   <line id="svg_15" y2="4.71109" x2="105.0131" y1="4.71109" x1="55.0131" stroke-width="1.5" stroke="#000" fill="none"/>
   <line id="svg_17" y2="54.70306" x2="105.0131" y1="4.71109" x1="105.0131" stroke-width="1.5" stroke="#000" fill="none"/>
   <line id="svg_19" y2="4.71109" x2="269.48567" y1="4.71109" x1="202.67407" stroke-width="1.5" stroke="#000" fill="none"/>
   <line id="svg_20" y2="54.622" x2="155.664" y1="4.001" x1="155.664" stroke-width="1.5" stroke="#000" fill="none"/>
   <line id="svg_32" y2="55.016" x2="206.355" y1="5.024" x1="206.355" stroke-width="1.5" stroke="#000" fill="none"/>
   <line id="svg_34" y2="4.71109" x2="204.62788" y1="4.71109" x1="154.00336" stroke-width="1.5" stroke="#000" fill="none"/>
   <line id="svg_35" y2="54.992" x2="303.76" y1="5" x1="303.76" stroke-width="1.5" stroke="#000" fill="none"/>
   <line id="svg_37" y2="4.711" x2="354.939" y1="4.71109" x1="268.56127" stroke-width="1.5" stroke="#000" fill="none"/>
   <line id="svg_38" y2="55.608" x2="354.774" y1="4.711" x1="354.774" stroke-width="1.5" stroke="#000" fill="none"/>
   <line id="svg_40" y2="4.71602" x2="155.13974" y1="4.71602" x1="104.68448" stroke-width="1.5" stroke="#000" fill="none"/>
   <line id="line-10" y2="54.176" x2="55.45" y1="54.176" x1="4.597" stroke-width="1.5" stroke="#000" fill="none"/>
   <line id="svg_6" y2="54.338" x2="304.182" y1="54.338" x1="206.216" stroke-width="1.5" stroke="#000" fill="none"/>
   <line id="svg_12" y2="53.92699" x2="156.14809" y1="53.92697" x1="104.49082" stroke-width="1.5" stroke="#000" fill="none"/>
   <text text-anchor="start" font-family="Helvetica, Arial, sans-serif" font-size=" 10px" id="svg_10" y="34.353" x="14.557" stroke-width="0" stroke="#000" fill="#000000">Reach</text>
   <text text-anchor="start" font-family="Helvetica, Arial, sans-serif" font-size="10" id="svg_13" y="35.21538" x="70.61563" stroke-width="0" stroke="#000" fill="#000000">&lt;Q&gt;</text>
   <text text-anchor="start" font-family="Helvetica, Arial, sans-serif" font-size=" 9px" id="svg_14" y="34.422" x="124.681" stroke-width="0" stroke="#000" fill="#000000">by</text>
   <text stroke-dasharray="2,2" text-anchor="start" font-family="Helvetica, Arial, sans-serif" font-size=" 10px" id="svg_16" y="34.84" x="172.487" stroke-width="0" stroke="#000" fill="#000000">&lt;P&gt;</text>
   <text stroke-dasharray="2,2" text-anchor="start" font-family="Helvetica, Arial, sans-serif" font-size=" 10px" id="svg_7" y="46.968" x="316.574" stroke-width="0" stroke="#000" fill="#000000">&lt;dist&gt;</text>
   <text stroke-dasharray="2,2" text-anchor="start" font-family="Helvetica, Arial, sans-serif" font-size=" 10px" id="text-2" y="34.213" x="213.592" stroke-width="0" stroke="#000" fill="#000000">within a distance of</text>
  </g>
 </g>
 <g>
  <title>Layer 1</title>
  <text stroke-dasharray="2,2" text-anchor="start" font-family="Helvetica, Arial, sans-serif" font-size=" 10px" id="text-9" y="30.888" x="312.485" stroke-width="0" stroke="#000" fill="#000000">distance</text>
  <path id="svg_2" fill=" rgb(0, 0, 0)" d="m354.20699,14.00482l-10.50365,5.86313l0.17348,-12.02775l10.33017,6.16462z"/>
  <rect id="svg_3" fill=" rgb(0, 0, 0)" height="3.452" width="43.343" y="12.1" x="307.722"/>
 </g>
</svg>