<svg width="362" height="62" xmlns="http://www.w3.org/2000/svg">
 <g transform="matrix(1.114089, 0, 0, 1.020058, -0.300436, 0.020058)">
  <title>background</title>
  <rect fill="#fff" id="rect-3" height="62" width="327" y="-1" x="-1"/>
 </g>

 <g transform="matrix(1, 0, 0, 1, 9.948617, 0)">
  <title>Layer 1</title>
  <g transform="matrix(1, 0, 0, 1, -9.69163, -0.986629)" id="svg_1">
   <title>Layer 1</title>
   <line fill="none" stroke="#000" stroke-width="1.5" x1="4.44587" y1="4.79511" x2="55.0131" y2="4.79511" id="svg_4"/>
   <line fill="none" stroke="#000" stroke-width="1.5" x1="5.0173" y1="4.79511" x2="5.0173" y2="54.70306" id="svg_5"/>
   <line fill="none" stroke="#000" stroke-width="1.5" x1="55.0131" y1="4.79511" x2="55.0131" y2="54.70306" id="svg_9"/>
   <line fill="none" stroke="#000" stroke-width="1.5" x1="55.0131" y1="4.71109" x2="105.0131" y2="4.71109" id="svg_15"/>
   <line fill="none" stroke="#000" stroke-width="1.5" x1="105.0131" y1="4.71109" x2="105.0131" y2="54.70306" id="svg_17"/>
   <line fill="none" stroke="#000" stroke-width="1.5" x1="202.67407" y1="4.71109" x2="269.48567" y2="4.71109" id="svg_19"/>
   <line fill="none" stroke="#000" stroke-width="1.5" x1="155.664" y1="4.001" x2="155.664" y2="54.622" id="svg_20"/>
   <line fill="none" stroke="#000" stroke-width="1.5" x1="206.355" y1="5.024" x2="206.355" y2="55.016" id="svg_32"/>
   <line fill="none" stroke="#000" stroke-width="1.5" x1="154.00336" y1="4.71109" x2="204.62788" y2="4.71109" id="svg_34"/>
   <line fill="none" stroke="#000" stroke-width="1.5" x1="303.76" y1="5" x2="303.76" y2="54.992" id="svg_35"/>
   <line fill="none" stroke="#000" stroke-width="1.5" x1="268.56127" y1="4.71109" x2="354.939" y2="4.711" id="svg_37"/>
   <line fill="none" stroke="#000" stroke-width="1.5" x1="354.774" y1="4.711" x2="354.774" y2="55.608" id="svg_38"/>
   <line fill="none" stroke="#000" stroke-width="1.5" x1="104.68448" y1="4.71602" x2="155.13974" y2="4.71602" id="svg_40"/>
   <line fill="none" stroke="#000" stroke-width="1.5" x1="4.597" y1="54.176" x2="55.45" y2="54.176" id="line-10"/>
   <line fill="none" stroke="#000" stroke-width="1.5" x1="206.216" y1="54.338" x2="304.182" y2="54.338" id="svg_6"/>
   <line fill="none" stroke="#000" stroke-width="1.5" x1="104.49082" y1="53.92697" x2="156.14809" y2="53.92699" id="svg_12"/>
   <text fill="#000000" stroke="#000" stroke-width="0" x="14.557" y="34.353" id="svg_10" font-size=" 10px" font-family="Helvetica, Arial, sans-serif" text-anchor="start">Reach</text>
   <text fill="#000000" stroke="#000" stroke-width="0" x="70.61563" y="35.21538" id="svg_13" font-size="10" font-family="Helvetica, Arial, sans-serif" text-anchor="start">&lt;Q&gt;</text>
   <text fill="#000000" stroke="#000" stroke-width="0" x="124.681" y="34.422" id="svg_14" font-size=" 9px" font-family="Helvetica, Arial, sans-serif" text-anchor="start">by</text>
   <text fill="#000000" stroke="#000" stroke-width="0" x="172.487" y="34.84" id="svg_16" font-size=" 10px" font-family="Helvetica, Arial, sans-serif" text-anchor="start" stroke-dasharray="2,2">&lt;P&gt;</text>
   <text fill="#000000" stroke="#000" stroke-width="0" x="315.362" y="46.968" id="svg_7" font-size=" 10px" font-family="Helvetica, Arial, sans-serif" text-anchor="start" stroke-dasharray="2,2">&lt;high&gt;</text>
   <text fill="#000000" stroke="#000" stroke-width="0" x="213.592" y="34.213" id="text-2" font-size=" 10px" font-family="Helvetica, Arial, sans-serif" text-anchor="start" stroke-dasharray="2,2">within a distance of</text>
  </g>
 </g>
 <g>
  <title>Layer 1</title>
  <text fill="#000000" stroke="#000" stroke-width="0" x="312.485" y="30.888" id="text-9" font-size=" 10px" font-family="Helvetica, Arial, sans-serif" text-anchor="start" stroke-dasharray="2,2">distance</text>
  <path d="m354.20699,14.00482l-10.50365,5.86313l0.17348,-12.02775l10.33017,6.16462z" fill=" rgb(0, 0, 0)" id="svg_2"/>
  <rect x="307.722" y="12.1" width="43.343" height="3.452" fill=" rgb(0, 0, 0)" id="svg_3"/>
 </g>
</svg>