<svg width="347" height="62" xmlns="http://www.w3.org/2000/svg" xmlns:undefined="https://boxy-svg.com">
 <g transform="matrix(1.002481, 0, 0, 1.111076, 0.84041, 0.253187)">
  <title>background</title>
  <rect x="-1" y="-1" width="347" height="62" id="canvas_background" fill="#fff"/>
  <g id="canvasGrid" display="none">
   <rect id="svg_1" width="625" height="125" x="1" y="1" stroke-width="0" fill="url(#gridpattern)"/>
  </g>
 </g>

 <g transform="matrix(1.002481, 0, 0, 1, 0.84041, 0.14211)">
  <title>Layer 1</title>
  <line id="svg_4" y2="4.79511" x2="341.38989" y1="4.79511" x1="291.39409" stroke-width="1.5" stroke="#000" fill="none"/>
  <line id="svg_5" y2="54.99292" x2="340.66945" y1="5.08497" x1="340.66945" stroke-width="1.5" stroke="#000" fill="none"/>
  <line id="svg_9" y2="54.70306" x2="5.73774" y1="4.79511" x1="5.73774" stroke-width="1.5" stroke="#000" fill="none"/>
  <line id="svg_15" y2="4.71109" x2="55.73774" y1="4.71109" x1="5.73774" stroke-width="1.5" stroke="#000" fill="none"/>
  <line id="svg_17" y2="54.70306" x2="55.73774" y1="4.71109" x1="55.73774" stroke-width="1.5" stroke="#000" fill="none"/>
  <line id="svg_19" y2="4.71109" x2="241.36973" y1="4.71109" x1="174.55813" stroke-width="1.5" stroke="#000" fill="none"/>
  <line id="svg_20" y2="54.99292" x2="176.75223" y1="5.00095" x1="176.75223" stroke-width="1.5" stroke="#000" fill="none"/>
  <line id="svg_32" y2="54.4132" x2="225.88266" y1="4.42123" x1="225.88266" stroke-width="1.5" stroke="#000" fill="none"/>
  <line id="svg_34" y2="4.71109" x2="176.22208" y1="4.71109" x1="104.728" stroke-width="1.5" stroke="#000" fill="none"/>
  <line id="svg_35" y2="53.83349" x2="243.99861" y1="3.84152" x1="243.99861" stroke-width="1.5" stroke="#000" fill="none"/>
  <line id="svg_37" y2="4.71109" x2="291.58819" y1="4.71109" x1="240.74313" stroke-width="1.5" stroke="#000" fill="none"/>
  <line id="svg_38" y2="54.70306" x2="291.67977" y1="4.71109" x1="291.67977" stroke-width="1.5" stroke="#000" fill="none"/>
  <line id="svg_40" y2="4.71602" x2="105.86438" y1="4.71602" x1="55.40912" stroke-width="1.5" stroke="#000" fill="none"/>
  <line id="svg_6" y2="54.63955" x2="244.70496" y1="54.63955" x1="225.13974" stroke-width="1.5" stroke="#000" fill="none"/>
  <line id="svg_12" y2="54.98047" x2="177.29934" y1="54.98047" x1="55.8452" stroke-width="1.5" stroke="#000" fill="none" transform="rotate(-0.192951, 116.572, 54.9805)"/>
  <text text-anchor="start" font-family="Helvetica, Arial, sans-serif" font-size="10" id="svg_10" y="35.19755" x="307.04383" stroke-width="0" stroke="#000" fill="#000000">&lt;Q&gt;</text>
  <text text-anchor="start" font-family="Helvetica, Arial, sans-serif" font-size="10" id="svg_13" y="35.21538" x="21.34027" stroke-width="0" stroke="#000" fill="#000000">&lt;P&gt;</text>
  <text text-anchor="start" font-family="Helvetica, Arial, sans-serif" font-size="9" id="svg_14" y="35.46957" x="64.0871" stroke-width="0" stroke="#000" fill="#000000">until within time interval of</text>
  <text text-anchor="start" font-family="Helvetica, Arial, sans-serif" font-size="10" id="svg_16" y="43.56334" x="188.30774" stroke-width="0" stroke="#000" fill="#000000">&lt;low&gt;</text>
  <text text-anchor="start" font-family="Helvetica, Arial, sans-serif" font-size="20" id="svg_21" y="43.29565" x="232.41686" stroke-width="0" stroke="#000" fill="#000000">,</text>
  <text text-anchor="start" font-family="Helvetica, Arial, sans-serif" font-size="10" id="svg_3" y="43.56334" x="253.65882" stroke-width="0" stroke="#000" fill="#000000">&lt;high&gt;</text>
 </g>
 <g>
  <title>Layer 2</title>
  <text transform="matrix(1.002481, 0, 0, 1, 4.069571, -4.932143)" stroke-dasharray="2,2" text-anchor="start" font-family="Helvetica, Arial, sans-serif" font-size=" 10px" id="text-1" y="33.922" x="180.26" stroke-width="0" stroke="#000" fill="#000000">time unit</text>
  <path id="svg_2" stroke=" rgb(0, 0, 0)" fill=" rgb(0, 0, 0)" d="m227.171,29.186c0.151,-27.802 -43.222,-36.227 -48.252,0.186l2.778,-0.158c3.573,-32.063 42.428,-25.953 42.843,0.142"/>
  <path id="svg_7" fill=" rgb(0, 0, 0)"  d="m189.14802,19.86724l-8.82027,-8.21971l11.52413,-3.50379l-2.70386,11.72351z"/>
  <path id="svg_8" stroke=" rgb(0, 0, 0)" fill=" rgb(0, 0, 0)" d="m293.641,28.953c0.151,-27.802 -43.222,-36.227 -48.252,0.186l2.778,-0.158c3.573,-32.063 42.428,-25.953 42.843,0.142"/>
  <text transform="matrix(1.002481, 0, 0, 1, 70.581787, -6.385346)" stroke-dasharray="2,2" text-anchor="start" font-family="Helvetica, Arial, sans-serif" font-size=" 10px" id="text-2" y="33.922" x="180.26" stroke-width="0" stroke="#000" fill="#000000">time unit</text>
  <path id="svg_11" fill=" rgb(0, 0, 0)"  d="m290.69591,17.46233l-11.89253,-1.98208l7.67282,-9.28492l4.2197,11.267z"/>
 </g>
</svg>