<svg width="282" height="62" xmlns="http://www.w3.org/2000/svg" xmlns:undefined="https://boxy-svg.com">
 <g transform="matrix(1.315001, 0, 0, 1.058915, 0.707304, 0.477403)">
  <title>background</title>
  <rect fill="#fff" id="rect-1" height="62" width="262" y="-1" x="-1"/>
  <g display="none" id="g-1">
   <rect fill="url(#gridpattern)" stroke-width="0" y="1" x="1" height="125" width="625" id="rect-2"/>
  </g>
 </g>

 <g transform="matrix(1, 0, 0, 1, -2.186769, 0.762731)">
  <title>background</title>
  <rect fill="#fff" id="rect-3" height="62" width="282" y="-1" x="-1"/>
  <g display="none" id="g-2">
   <rect fill="url(#gridpattern)" stroke-width="0" y="1" x="1" height="125" width="625" id="rect-4"/>
  </g>
 </g>
 <g transform="matrix(1, 0, 0, 1, -2.186769, 0.762731)">
  <title>Layer 1</title>
  <line fill="none" stroke="#000" stroke-width="1.5" x1="172.68673" y1="4.45497" x2="274.72329" y2="4.45497" id="line-1"/>
  <line fill="none" stroke="#000" stroke-width="1.5" x1="274.00285" y1="4.74483" x2="274.00285" y2="54.65278" id="line-2"/>
  <line fill="none" stroke="#000" stroke-width="1.5" x1="5.73774" y1="4.79511" x2="5.73774" y2="54.70306" id="line-3"/>
  <line fill="none" stroke="#000" stroke-width="1.5" x1="5.73774" y1="4.71109" x2="55.73774" y2="4.71109" id="line-4"/>
  <line fill="none" stroke="#000" stroke-width="1.5" x1="55.73774" y1="4.71109" x2="55.73774" y2="54.70306" id="line-5"/>
  <line fill="none" stroke="#000" stroke-width="1.5" x1="176.75223" y1="5.00095" x2="176.75223" y2="54.99292" id="line-6"/>
  <line fill="none" stroke="#000" stroke-width="1.5" x1="104.728" y1="4.71109" x2="176.22208" y2="4.71109" id="line-7"/>
  <line fill="none" stroke="#000" stroke-width="1.5" x1="225.01317" y1="4.37095" x2="225.01317" y2="54.36292" id="line-8"/>
  <line fill="none" stroke="#000" stroke-width="1.5" x1="55.40912" y1="4.71602" x2="105.86438" y2="4.71602" id="line-9"/>
  <line transform="rotate(-0.192951, 116.572, 54.9805)" fill="none" stroke="#000" stroke-width="1.5" x1="55.8452" y1="54.98047" x2="177.29934" y2="54.98047" id="line-10"/>
  <text fill="#000000" stroke="#000" stroke-width="0" x="240.37723" y="34.85741" id="text-3" font-size="10" font-family="Helvetica, Arial, sans-serif" text-anchor="start">&lt;Q&gt;</text>
  <text fill="#000000" stroke="#000" stroke-width="0" x="21.34027" y="35.21538" id="text-4" font-size="10" font-family="Helvetica, Arial, sans-serif" text-anchor="start">&lt;P&gt;</text>
  <text fill="#000000" stroke="#000" stroke-width="0" x="64.0871" y="35.46957" id="text-5" font-size="9" font-family="Helvetica, Arial, sans-serif" text-anchor="start">until within time interval of</text>
  <text fill="#000000" stroke="#000" stroke-width="0" x="185.632" y="45.88" id="svg_3" font-size=" 10px" font-family="Helvetica, Arial, sans-serif" text-anchor="start">&lt;high&gt;</text>
 </g>
 <g>
  <title>Layer 2</title>
  <text stroke-dasharray="2,2" text-anchor="start" font-family="Helvetica, Arial, sans-serif" font-size=" 10px" id="text-1" y="32.199" x="178.538" stroke-width="0" stroke="#000" fill="#000000">time unit</text>
  <path id="svg_1" stroke=" rgb(0, 0, 0)" fill=" rgb(0, 0, 0)" d="m222.616,30.153c0.151,-27.802 -43.115,-36.227 -48.133,0.186l2.772,-0.158c3.564,-32.063 42.323,-25.953 42.737,0.142"/>
  <path id="svg_2" fill=" rgb(0, 0, 0)"  d="m217.83158,18.40281l-11.52077,-3.46047l8.75656,-8.2474l2.76421,11.70787z"/>
 </g>
</svg>